<svg width="20" height="20" viewBox="0 0 20 20" fill="none" xmlns="http://www.w3.org/2000/svg">
<g clip-path="url(#clip0_22540_4377)">
<path d="M20 10C20 8.7768 19.78 7.60504 19.378 6.52176L10 6.08695L0.621992 6.52172C0.220039 7.60504 0 8.7768 0 10C0 11.2232 0.220039 12.395 0.621992 13.4782L10 13.913L19.378 13.4783C19.78 12.395 20 11.2232 20 10Z" fill="#496E2D"/>
<path d="M9.99996 20C14.2996 20 17.965 17.2862 19.378 13.4782H0.621948C2.03488 17.2862 5.70031 20 9.99996 20Z" fill="#D80027"/>
<path d="M0.621948 6.52176H19.378C17.965 2.71375 14.2996 0 9.99996 0C5.70031 0 2.03488 2.71375 0.621948 6.52176Z" fill="#F0F0F0"/>
</g>
<defs>
<clipPath id="clip0_22540_4377">
<rect width="20" height="20" fill="white"/>
</clipPath>
</defs>
</svg>
