<svg width="20" height="20" viewBox="0 0 20 20" fill="none" xmlns="http://www.w3.org/2000/svg">
<g clip-path="url(#clip0_22540_5029)">
<path d="M0 10C0 4.47719 4.47719 0 10 0C15.5228 0 20 4.47719 20 10" fill="#D80027"/>
<path d="M13.4782 9.29991L12.0569 9.96838L12.8138 11.3449L11.2705 11.0496L11.0749 12.6087L9.99997 11.462L8.92497 12.6087L8.72946 11.0496L7.18614 11.3448L7.94298 9.96838L6.52173 9.29991L7.94298 8.63131L7.18614 7.25495L8.72942 7.5501L8.92501 5.99112L9.99997 7.13772L11.075 5.99112L11.2705 7.5501L12.8138 7.25495L12.057 8.63143L13.4782 9.29991Z" fill="#FFDA44"/>
<path d="M12.6087 3.26086H10.6521C10.6521 2.90074 10.3601 2.60867 9.99995 2.60867C9.63979 2.60867 9.34776 2.9007 9.34776 3.26086H7.39124C7.39124 3.62102 7.70499 3.91305 8.06514 3.91305H8.04338C8.04338 4.2732 8.33534 4.56524 8.69557 4.56524C8.69557 4.92539 8.98752 5.21742 9.34776 5.21742H10.6521C11.0122 5.21742 11.3043 4.92543 11.3043 4.56524C11.6644 4.56524 11.9565 4.27324 11.9565 3.91305H11.9347C12.2949 3.91305 12.6087 3.62106 12.6087 3.26086Z" fill="#FFDA44"/>
<path d="M20 10C20 15.5228 15.5228 20 10 20C4.47719 20 0 15.5228 0 10H20Z" fill="#F0F0F0"/>
<path d="M10.0001 20C13.1259 20 15.9163 18.5655 17.7502 16.3192C17.4203 16.0943 17.2422 15.7308 16.6666 15.7308C15.8333 15.7308 15.8333 16.4928 15 16.4928C14.1667 16.4928 14.1667 15.7308 13.3334 15.7308C12.5001 15.7308 12.5001 16.4928 11.6667 16.4928C10.8334 16.4928 10.8333 15.7308 9.99992 15.7308C9.1666 15.7308 9.1666 16.4928 8.33331 16.4928C7.50011 16.4928 7.50011 15.7308 6.66679 15.7308C5.83339 15.7308 5.83339 16.4928 5 16.4928C4.1666 16.4928 4.1666 15.7308 3.3332 15.7308C2.75765 15.7308 2.57957 16.0942 2.24988 16.3191C4.08363 18.5655 6.87417 20 10.0001 20Z" fill="#0052B4"/>
<path d="M18.3333 11.2754C17.4999 11.2754 17.4999 10.5134 16.6666 10.5134C15.8333 10.5134 15.8333 11.2754 15 11.2754C14.1667 11.2754 14.1667 10.5134 13.3334 10.5134C12.5001 10.5134 12.5001 11.2754 11.6667 11.2754C10.8333 11.2754 10.8333 10.5134 9.9999 10.5134C9.16658 10.5134 9.16658 11.2754 8.3333 11.2754C7.50009 11.2754 7.50009 10.5134 6.66677 10.5134C5.83337 10.5134 5.83337 11.2754 4.99998 11.2754C4.16658 11.2754 4.16658 10.5134 3.33318 10.5134C2.49998 10.5134 2.49998 11.2754 1.66666 11.2754C0.837827 11.2754 0.833022 10.5218 0.0130615 10.5138C0.0361475 10.9712 0.0907568 11.4203 0.173335 11.8594C0.837554 11.957 0.895718 12.6087 1.66669 12.6087C2.50001 12.6087 2.50001 11.8468 3.33322 11.8468C4.16662 11.8468 4.16662 12.6087 5.00001 12.6087C5.83341 12.6087 5.83341 11.8468 6.66681 11.8468C7.50013 11.8468 7.50013 12.6087 8.33333 12.6087C9.16666 12.6087 9.16666 11.8468 9.99994 11.8468C10.8333 11.8468 10.8333 12.6087 11.6667 12.6087C12.5001 12.6087 12.5001 11.8468 13.3334 11.8468C14.1667 11.8468 14.1667 12.6087 15 12.6087C15.8333 12.6087 15.8333 11.8468 16.6666 11.8468C17.5 11.8468 17.5 12.6087 18.3333 12.6087C19.1043 12.6087 19.1625 11.9571 19.8268 11.8594C19.9094 11.4203 19.9639 10.9712 19.9871 10.5138C19.167 10.5219 19.1621 11.2754 18.3333 11.2754Z" fill="#0052B4"/>
<path d="M16.6666 13.1221C15.8332 13.1221 15.8332 13.8841 15 13.8841C14.1667 13.8841 14.1666 13.1221 13.3334 13.1221C12.5 13.1221 12.5 13.8841 11.6667 13.8841C10.8333 13.8841 10.8333 13.1221 9.99987 13.1221C9.16655 13.1221 9.16655 13.8841 8.33327 13.8841C7.50007 13.8841 7.50007 13.1221 6.66675 13.1221C5.83335 13.1221 5.83335 13.8841 4.99995 13.8841C4.16655 13.8841 4.16655 13.1221 3.33315 13.1221C2.49995 13.1221 2.49995 13.8841 1.66663 13.8841C1.0712 13.8841 0.901123 13.4952 0.548584 13.273C0.783271 13.9511 1.08858 14.5961 1.45628 15.1991C1.52022 15.2109 1.58983 15.2174 1.66663 15.2174C2.49995 15.2174 2.49995 14.4555 3.33315 14.4555C4.16655 14.4555 4.16655 15.2174 4.99995 15.2174C5.83335 15.2174 5.83335 14.4555 6.66675 14.4555C7.50007 14.4555 7.50007 15.2174 8.33327 15.2174C9.16659 15.2174 9.16659 14.4555 9.99987 14.4555C10.8333 14.4555 10.8333 15.2174 11.6667 15.2174C12.5001 15.2174 12.5001 14.4555 13.3334 14.4555C14.1667 14.4555 14.1667 15.2174 15 15.2174C15.8332 15.2174 15.8333 14.4555 16.6666 14.4555C17.5 14.4555 17.5 15.2174 18.3332 15.2174C18.4101 15.2174 18.4797 15.2109 18.5437 15.199C18.9114 14.5961 19.2166 13.9511 19.4514 13.273C19.0989 13.4951 18.9287 13.8841 18.3332 13.8841C17.5 13.8841 17.5 13.1221 16.6666 13.1221Z" fill="#0052B4"/>
<path d="M19.969 9.20997C19.167 9.22891 19.156 9.97106 18.3332 9.97106C17.4999 9.97106 17.4999 9.20911 16.6665 9.20911C15.8332 9.20911 15.8332 9.97106 14.9999 9.97106C14.1666 9.97106 14.1666 9.20911 13.3333 9.20911C12.5 9.20911 12.5 9.97106 11.6666 9.97106C10.8333 9.97106 10.8332 9.20911 9.99984 9.20911C9.16652 9.20911 9.16652 9.97106 8.33324 9.97106C7.50004 9.97106 7.50004 9.20911 6.66672 9.20911C5.83332 9.20911 5.83332 9.97106 4.99992 9.97106C4.16652 9.97106 4.16652 9.20911 3.33313 9.20911C2.49992 9.20911 2.49992 9.97106 1.6666 9.97106C0.843984 9.97106 0.832852 9.22899 0.0309766 9.20997C0.010625 9.47067 0 9.73411 0 10C0 10.1822 0.00515625 10.3631 0.0148828 10.5429C0.832969 10.552 0.838398 11.3043 1.66664 11.3043C2.49996 11.3043 2.49996 10.5425 3.33316 10.5425C4.16656 10.5425 4.16656 11.3043 4.99996 11.3043C5.83336 11.3043 5.83336 10.5425 6.66676 10.5425C7.50008 10.5425 7.50008 11.3043 8.33328 11.3043C9.1666 11.3043 9.1666 10.5425 9.99988 10.5425C10.8333 10.5425 10.8333 11.3043 11.6667 11.3043C12.5001 11.3043 12.5001 10.5425 13.3334 10.5425C14.1667 10.5425 14.1667 11.3043 15 11.3043C15.8332 11.3043 15.8333 10.5425 16.6666 10.5425C17.5 10.5425 17.5 11.3043 18.3332 11.3043C19.1616 11.3043 19.167 10.552 19.9852 10.5429C19.9948 10.3631 20 10.1822 20 10C20 9.73411 19.9894 9.47067 19.969 9.20997Z" fill="#F0F0F0"/>
</g>
<defs>
<clipPath id="clip0_22540_5029">
<rect width="20" height="20" fill="white"/>
</clipPath>
</defs>
</svg>
