<svg width="20" height="20" viewBox="0 0 20 20" fill="none" xmlns="http://www.w3.org/2000/svg">
<g clip-path="url(#clip0_22540_5110)">
<path d="M20 10C20 15.5228 15.5228 20 10 20C4.47719 20 0 15.5228 0 10C0.434766 10 10 8.69566 10 8.69566L20 10Z" fill="#D80027"/>
<path d="M0 10C0 4.47719 4.47719 0 10 0C15.5228 0 20 4.47719 20 10" fill="#0052B4"/>
<path d="M7.39133 6.95652C7.39133 6.23617 6.80735 5.65218 6.087 5.65218C5.75282 5.65218 5.44825 5.77796 5.21743 5.98456V5.21738H5.65219V4.34781H5.21743V3.91304H4.34786V4.34781H3.91309V5.21738H4.34786V5.98456C4.11704 5.77796 3.81247 5.65218 3.47829 5.65218C2.75793 5.65218 2.17395 6.23617 2.17395 6.95652C2.17395 7.34273 2.34196 7.6896 2.60872 7.92847V8.69566H6.95653V7.92847C7.22336 7.6896 7.39133 7.34273 7.39133 6.95652Z" fill="#FFDA44"/>
</g>
<defs>
<clipPath id="clip0_22540_5110">
<rect width="20" height="20" fill="white"/>
</clipPath>
</defs>
</svg>
