<svg width="20" height="20" viewBox="0 0 20 20" fill="none" xmlns="http://www.w3.org/2000/svg">
<g clip-path="url(#clip0_22540_4738)">
<path d="M20 10C20 15.5228 15.5228 20 10 20C4.47719 20 0 15.5228 0 10C0 10.0024 10 0.00109375 10 0C15.5228 0 20 4.47719 20 10Z" fill="#0052B4"/>
<path d="M9.97327 10H10C10 9.99102 10 9.98227 10 9.97324C9.99112 9.98219 9.98221 9.9911 9.97327 10Z" fill="#F0F0F0"/>
<path d="M10 5.21738C10 3.45781 10 2.30488 10 0H9.99832C4.47625 0.0009375 0 4.4777 0 10H5.21738V7.06207L8.15535 10H9.97328L10 9.97324C10 9.29953 10 8.6984 10 8.15539L7.06203 5.21738H10Z" fill="#F0F0F0"/>
<path d="M5.05917 1.30434C3.49514 2.19492 2.19491 3.49516 1.30432 5.05918V10H3.91303V3.91313V3.91305H9.99999C9.99999 3.09027 9.99999 2.30645 9.99999 1.30434H5.05917Z" fill="#D80027"/>
<path d="M9.99999 8.77027L6.44713 5.21742H5.21741V5.2175L9.99991 10H9.99999C9.99999 10 9.99999 9.15207 9.99999 8.77027Z" fill="#D80027"/>
<path d="M16.0869 11.7391V12.1739H12.6087V11.7391H11.3043V13.4782H12.1739V13.913H16.5217V13.4782H17.3913V11.7391H16.0869Z" fill="#FFDA44"/>
<path d="M11.3043 5.21738V10C11.3043 12.3296 14.3478 13.0435 14.3478 13.0435C14.3478 13.0435 17.3913 12.3296 17.3913 10V5.21738H11.3043Z" fill="#338AF3"/>
<path d="M14.3476 8.78472C13.5868 8.78472 13.5868 9.48039 12.826 9.48039C12.0651 9.48039 12.0651 8.78472 11.3043 8.78472V10.0021C12.0651 10.0021 12.0651 10.6978 12.826 10.6978C13.5868 10.6978 13.5868 10.0021 14.3476 10.0021C15.1085 10.0021 15.1085 10.6978 15.8694 10.6978C16.6304 10.6978 16.6303 10.0021 17.3913 10.0021V8.78472C16.6304 8.78472 16.6304 9.48039 15.8694 9.48039C15.1085 9.48039 15.1085 8.78472 14.3476 8.78472Z" fill="#F3F3F3"/>
<path d="M14.3476 6.34781C13.5868 6.34781 13.5868 7.04347 12.826 7.04347C12.0651 7.04347 12.0651 6.34781 11.3043 6.34781V7.56519C12.0651 7.56519 12.0651 8.26086 12.826 8.26086C13.5868 8.26086 13.5868 7.56519 14.3476 7.56519C15.1085 7.56519 15.1085 8.26086 15.8694 8.26086C16.6304 8.26086 16.6303 7.56519 17.3913 7.56519V6.34781C16.6304 6.34781 16.6304 7.04347 15.8694 7.04347C15.1085 7.04347 15.1085 6.34781 14.3476 6.34781Z" fill="#F3F3F3"/>
</g>
<defs>
<clipPath id="clip0_22540_4738">
<rect width="20" height="20" fill="white"/>
</clipPath>
</defs>
</svg>
